<svg width="20" height="20" viewBox="0 0 20 20" fill="none" xmlns="http://www.w3.org/2000/svg">
    <path d="M5.84897 5.73501C5.99497 5.88101 5.99497 6.11901 5.84897 6.26501C5.70297 6.41101 5.46497 6.41101 5.31897 6.26501C5.17297 6.11901 5.17297 5.88101 5.31897 5.73501C5.46497 5.58801 5.70197 5.58801 5.84897 5.73501Z" stroke="#5B6975" stroke-width="1.5" stroke-linecap="round" stroke-linejoin="round"/>
    <path d="M10.265 5.73501C10.411 5.88101 10.411 6.11901 10.265 6.26501C10.119 6.41101 9.88099 6.41101 9.73499 6.26501C9.58899 6.11901 9.58899 5.88101 9.73499 5.73501C9.88099 5.58801 10.119 5.58801 10.265 5.73501Z" stroke="#5B6975" stroke-width="1.5" stroke-linecap="round" stroke-linejoin="round"/>
    <path d="M14.682 5.73501C14.828 5.88101 14.828 6.11901 14.682 6.26501C14.536 6.41101 14.298 6.41101 14.152 6.26501C14.006 6.11901 14.006 5.88101 14.152 5.73501C14.298 5.58801 14.535 5.58801 14.682 5.73501Z" stroke="#5B6975" stroke-width="1.5" stroke-linecap="round" stroke-linejoin="round"/>
    <path d="M9 11H3C1.895 11 1 10.105 1 9V3C1 1.895 1.895 1 3 1H17C18.105 1 19 1.895 19 3V6" stroke="#5B6975" stroke-width="1.5" stroke-linecap="round" stroke-linejoin="round"/>
    <path d="M17.3928 13.696V11.962C17.3928 10.878 16.5138 9.99902 15.4298 9.99902C14.3458 9.99902 13.4668 10.878 13.4668 11.962V13.696" stroke="#5B6975" stroke-width="1.5" stroke-linecap="round" stroke-linejoin="round"/>
    <path d="M18 13.698H13C12.448 13.698 12 14.146 12 14.698V18C12 18.552 12.448 19 13 19H18C18.552 19 19 18.552 19 18V14.698C19 14.145 18.552 13.698 18 13.698Z" stroke="#5B6975" stroke-width="1.5" stroke-linecap="round" stroke-linejoin="round"/>
</svg>
