<svg width="19" height="20" viewBox="0 0 19 20" fill="none" xmlns="http://www.w3.org/2000/svg">
    <path d="M11.534 8.09074C12.5884 9.14516 12.5884 10.8547 11.534 11.9091C10.4796 12.9635 8.77004 12.9635 7.71562 11.9091C6.6612 10.8547 6.6612 9.14516 7.71562 8.09074C8.77004 7.03632 10.4796 7.03632 11.534 8.09074" stroke="#BDBDBD" stroke-width="1.5" stroke-linecap="round" stroke-linejoin="round"/>
    <path d="M2.87487 10C2.87487 10.297 2.90187 10.594 2.93787 10.882L1.34987 12.124C0.99787 12.4 0.90187 12.893 1.12587 13.28L2.53787 15.723C2.76087 16.11 3.23487 16.273 3.64987 16.107L5.07187 15.536C5.35287 15.423 5.66587 15.468 5.91787 15.635C6.13787 15.781 6.36587 15.915 6.60187 16.035C6.87187 16.172 7.06787 16.417 7.11087 16.717L7.32787 18.23C7.39087 18.672 7.76987 19 8.21587 19H11.0329C11.4789 19 11.8579 18.672 11.9209 18.23L12.1379 16.718C12.1809 16.418 12.3789 16.171 12.6499 16.035C12.8849 15.917 13.1119 15.784 13.3309 15.639C13.5849 15.471 13.8989 15.423 14.1809 15.537L15.5999 16.107C16.0139 16.273 16.4879 16.11 16.7119 15.723L18.1239 13.28C18.3479 12.893 18.2519 12.399 17.8999 12.124L16.3119 10.882C16.3479 10.594 16.3749 10.297 16.3749 10C16.3749 9.703 16.3479 9.406 16.3119 9.118L17.8999 7.876C18.2519 7.6 18.3479 7.107 18.1239 6.72L16.7119 4.277C16.4889 3.89 16.0149 3.727 15.5999 3.893L14.1809 4.463C13.8989 4.576 13.5849 4.529 13.3309 4.361C13.1119 4.216 12.8849 4.083 12.6499 3.965C12.3789 3.829 12.1809 3.582 12.1379 3.282L11.9219 1.77C11.8589 1.328 11.4799 1 11.0339 1H8.21687C7.77087 1 7.39187 1.328 7.32887 1.77L7.11087 3.284C7.06787 3.583 6.87087 3.829 6.60187 3.966C6.36587 4.086 6.13787 4.221 5.91787 4.366C5.66487 4.532 5.35187 4.577 5.07087 4.464L3.64987 3.893C3.23487 3.727 2.76087 3.89 2.53787 4.277L1.12587 6.72C0.90187 7.107 0.99787 7.601 1.34987 7.876L2.93787 9.118C2.90187 9.406 2.87487 9.703 2.87487 10V10Z" stroke="#BDBDBD" stroke-width="1.5" stroke-linecap="round" stroke-linejoin="round"/>
</svg>
